<!--<svg width="24" height="24" viewBox="0 0 24 24" fill="none" xmlns="http://www.w3.org/2000/svg">-->
<!--    <path d="M19.1367 8.62109C19.8398 8.09375 20.4727 7.46094 20.9648 6.72266C20.332 7.00391 19.5938 7.21484 18.8555 7.28516C19.6289 6.82812 20.1914 6.125 20.4727 5.24609C19.7695 5.66797 18.9609 5.98438 18.1523 6.16016C17.4492 5.42188 16.5 5 15.4453 5C13.4062 5 11.7539 6.65234 11.7539 8.69141C11.7539 8.97266 11.7891 9.25391 11.8594 9.53516C8.80078 9.35938 6.05859 7.88281 4.23047 5.66797C3.91406 6.19531 3.73828 6.82812 3.73828 7.53125C3.73828 8.79688 4.37109 9.92188 5.39062 10.5898C4.79297 10.5547 4.19531 10.4141 3.70312 10.1328V10.168C3.70312 11.9609 4.96875 13.4375 6.65625 13.7891C6.375 13.8594 6.02344 13.9297 5.70703 13.9297C5.46094 13.9297 5.25 13.8945 5.00391 13.8594C5.46094 15.3359 6.83203 16.3906 8.44922 16.4258C7.18359 17.4102 5.60156 18.0078 3.87891 18.0078C3.5625 18.0078 3.28125 17.9727 3 17.9375C4.61719 18.9922 6.55078 19.5898 8.66016 19.5898C15.4453 19.5898 19.1367 14 19.1367 9.11328C19.1367 8.9375 19.1367 8.79688 19.1367 8.62109Z" fill="#111827"/>-->
<!--</svg>-->
<!--<svg width="16" height="23" viewBox="0 0 16 23" fill="none" xmlns="http://www.w3.org/2000/svg">-->
<!--    <path d="M1 4.5C1 3.57174 1.36875 2.6815 2.02513 2.02513C2.6815 1.36875 3.57174 1 4.5 1H8V8H4.5C3.57174 8 2.6815 7.63125 2.02513 6.97487C1.36875 6.3185 1 5.42826 1 4.5ZM8 1H11.5C11.9596 1 12.4148 1.09053 12.8394 1.26642C13.264 1.44231 13.6499 1.70012 13.9749 2.02513C14.2999 2.35013 14.5577 2.73597 14.7336 3.16061C14.9095 3.58525 15 4.04037 15 4.5C15 4.95963 14.9095 5.41475 14.7336 5.83939C14.5577 6.26403 14.2999 6.64987 13.9749 6.97487C13.6499 7.29988 13.264 7.55769 12.8394 7.73358C12.4148 7.90947 11.9596 8 11.5 8H8V1Z" stroke="black" stroke-width="2" stroke-linecap="round" stroke-linejoin="round"/>-->
<!--    <path d="M8 11.5C8 11.0404 8.09053 10.5852 8.26642 10.1606C8.44231 9.73597 8.70012 9.35013 9.02513 9.02513C9.35013 8.70012 9.73597 8.44231 10.1606 8.26642C10.5852 8.09053 11.0404 8 11.5 8C11.9596 8 12.4148 8.09053 12.8394 8.26642C13.264 8.44231 13.6499 8.70012 13.9749 9.02513C14.2999 9.35013 14.5577 9.73597 14.7336 10.1606C14.9095 10.5852 15 11.0404 15 11.5C15 11.9596 14.9095 12.4148 14.7336 12.8394C14.5577 13.264 14.2999 13.6499 13.9749 13.9749C13.6499 14.2999 13.264 14.5577 12.8394 14.7336C12.4148 14.9095 11.9596 15 11.5 15C11.0404 15 10.5852 14.9095 10.1606 14.7336C9.73597 14.5577 9.35013 14.2999 9.02513 13.9749C8.70012 13.6499 8.44231 13.264 8.26642 12.8394C8.09053 12.4148 8 11.9596 8 11.5V11.5ZM1 18.5C1 17.5717 1.36875 16.6815 2.02513 16.0251C2.6815 15.3687 3.57174 15 4.5 15H8V18.5C8 19.4283 7.63125 20.3185 6.97487 20.9749C6.3185 21.6313 5.42826 22 4.5 22C3.57174 22 2.6815 21.6313 2.02513 20.9749C1.36875 20.3185 1 19.4283 1 18.5ZM1 11.5C1 10.5717 1.36875 9.6815 2.02513 9.02513C2.6815 8.36875 3.57174 8 4.5 8H8V15H4.5C3.57174 15 2.6815 14.6313 2.02513 13.9749C1.36875 13.3185 1 12.4283 1 11.5Z" stroke="black" stroke-width="2" stroke-linecap="round" stroke-linejoin="round"/>-->
<!--</svg>-->
<svg width="14" height="18" viewBox="0 0 14 20" fill="none" xmlns="http://www.w3.org/2000/svg">
    <path d="M10.125 6.875C10.9538 6.875 11.7487 6.54576 12.3347 5.95971C12.9208 5.37366 13.25 4.5788 13.25 3.75C13.25 2.9212 12.9208 2.12634 12.3347 1.54029C11.7487 0.95424 10.9538 0.625 10.125 0.625H3.875C3.0462 0.625 2.25134 0.95424 1.66529 1.54029C1.07924 2.12634 0.750001 2.9212 0.750001 3.75C0.750001 4.5788 1.07924 5.37366 1.66529 5.95971C2.25134 6.54576 3.0462 6.875 3.875 6.875C3.0462 6.875 2.25134 7.20424 1.66529 7.79029C1.07924 8.37634 0.750001 9.1712 0.750001 10C0.750001 10.8288 1.07924 11.6237 1.66529 12.2097C2.25134 12.7958 3.0462 13.125 3.875 13.125C3.25693 13.125 2.65275 13.3083 2.13884 13.6517C1.62494 13.995 1.2244 14.4831 0.987878 15.0541C0.751354 15.6251 0.689469 16.2535 0.810047 16.8597C0.930626 17.4658 1.22825 18.0227 1.66529 18.4597C2.10233 18.8967 2.65915 19.1944 3.26534 19.315C3.87153 19.4355 4.49987 19.3736 5.07089 19.1371C5.64191 18.9006 6.12996 18.5001 6.47334 17.9862C6.81672 17.4723 7 16.8681 7 16.25V6.875H10.125Z" fill="black"/>
    <path d="M10.125 13.125C11.8509 13.125 13.25 11.7259 13.25 10C13.25 8.27411 11.8509 6.875 10.125 6.875C8.39911 6.875 7 8.27411 7 10C7 11.7259 8.39911 13.125 10.125 13.125Z" fill="black"/>
</svg>
