<svg width="20" height="19" viewBox="0 0 20 19" fill="none" xmlns="http://www.w3.org/2000/svg">
    <path d="M9 13.5L5 9.5M5 9.5L9 5.5M5 9.5H19M14 13.5V14.5C14 15.2956 13.6839 16.0587 13.1213 16.6213C12.5587 17.1839 11.7956 17.5 11 17.5H4C3.20435 17.5 2.44129 17.1839 1.87868 16.6213C1.31607 16.0587 1 15.2956 1 14.5V4.5C1 3.70435 1.31607 2.94129 1.87868 2.37868C2.44129 1.81607 3.20435 1.5 4 1.5H11C11.7956 1.5 12.5587 1.81607 13.1213 2.37868C13.6839 2.94129 14 3.70435 14 4.5V5.5" stroke="white" stroke-width="2" stroke-linecap="round" stroke-linejoin="round"/>
</svg>
