<svg width="37" height="38" viewBox="0 0 37 38" fill="none" xmlns="http://www.w3.org/2000/svg">
    <g clip-path="url(#clip0_12_409)">
        <path d="M3.96429 0.5C1.77567 0.5 0 2.27567 0 4.46429V33.5357C0 35.7243 1.77567 37.5 3.96429 37.5H33.0357C35.2243 37.5 37 35.7243 37 33.5357V4.46429C37 2.27567 35.2243 0.5 33.0357 0.5H3.96429ZM12.1307 11.5037C13.7524 11.5037 15.1933 12.0644 16.2543 12.9053C17.2355 13.686 17.695 14.4668 18.0959 15.1677L15.2942 16.5675C15.0938 16.1079 14.8526 15.6271 14.2333 15.1072C13.5521 14.566 12.8724 14.4065 12.2904 14.4065C10.0088 14.4065 8.80765 16.5284 8.80765 18.89C8.80765 21.9931 10.3901 23.5332 12.2904 23.5332C14.1322 23.5332 14.8737 22.2522 15.3529 21.4325L18.1366 22.8536C17.6151 23.6734 17.1146 24.4753 15.9934 25.2544C15.3937 25.6748 14.0132 26.4963 12.0509 26.4963C8.30733 26.4963 5.28571 23.7745 5.28571 18.9893C5.28571 14.8073 8.12803 11.5037 12.1307 11.5037ZM18.3648 11.9437H22.128L25.0502 21.993L27.9511 11.9437H31.7143L26.8102 26.0758H23.2084L18.3648 11.9438V11.9437Z" fill="#6D28D9"/>
    </g>
    <defs>
        <clipPath id="clip0_12_409">
            <rect width="37" height="37" fill="white" transform="translate(0 0.5)"/>
        </clipPath>
    </defs>
</svg>
