<svg width="17" height="17" viewBox="0 0 17 17" fill="none" xmlns="http://www.w3.org/2000/svg">
    <path d="M12.4435 1.60899L13.1499 2.3168L12.4435 1.60899ZM15.3898 1.60899L16.0962 0.90119V0.90119L15.3898 1.60899ZM3.91668 16V17C4.18155 17 4.43561 16.8949 4.62308 16.7078L3.91668 16ZM1 16H0C0 16.5523 0.447715 17 1 17L1 16ZM1 13.03L0.293591 12.3222C0.105628 12.5098 0 12.7644 0 13.03H1ZM13.1499 2.3168C13.5732 1.8944 14.2602 1.8944 14.6834 2.3168L16.0962 0.90119C14.8923 -0.300397 12.9411 -0.300397 11.7371 0.90119L13.1499 2.3168ZM14.6834 2.3168C15.1055 2.73811 15.1055 3.42036 14.6834 3.84167L16.0962 5.25728C17.3013 4.05461 17.3013 2.10387 16.0962 0.90119L14.6834 2.3168ZM14.6834 3.84167L3.21027 15.2922L4.62308 16.7078L16.0962 5.25728L14.6834 3.84167ZM3.91668 15H1V17H3.91668V15ZM11.7371 0.90119L0.293591 12.3222L1.70641 13.7378L13.1499 2.3168L11.7371 0.90119ZM0 13.03V16H2V13.03H0ZM10.4871 3.56434L13.4334 6.50482L14.8462 5.08921L11.8999 2.14873L10.4871 3.56434Z" fill="#6D28D9"/>
</svg>
